<svg width="18" height="18" viewBox="0 0 18 18" fill="none" xmlns="http://www.w3.org/2000/svg">
<path d="M5.42502 11.7417L3.50835 9.83334L11.5 9.83334C11.721 9.83334 11.933 9.74554 12.0893 9.58926C12.2455 9.43298 12.3333 9.22102 12.3333 9C12.3333 8.77899 12.2455 8.56703 12.0893 8.41075C11.933 8.25447 11.721 8.16667 11.5 8.16667L3.50835 8.16667L5.42501 6.25834C5.50312 6.18087 5.56512 6.0887 5.60742 5.98715C5.64973 5.8856 5.67151 5.77668 5.67151 5.66667C5.67151 5.55666 5.64973 5.44774 5.60742 5.34619C5.56512 5.24464 5.50312 5.15247 5.42501 5.075C5.34755 4.9969 5.25538 4.9349 5.15383 4.89259C5.05228 4.85029 4.94336 4.8285 4.83335 4.8285C4.72334 4.8285 4.61442 4.85029 4.51287 4.89259C4.41132 4.9349 4.31915 4.9969 4.24168 5.075L0.908348 8.40834C0.832481 8.48759 0.77301 8.58104 0.733348 8.68334C0.65 8.88622 0.65 9.11378 0.733348 9.31667C0.77301 9.41896 0.832481 9.51242 0.908348 9.59167L4.24168 12.925C4.31938 13.0027 4.41162 13.0643 4.51314 13.1064C4.61466 13.1484 4.72347 13.1701 4.83335 13.1701C4.94323 13.1701 5.05204 13.1484 5.15356 13.1064C5.25507 13.0643 5.34732 13.0027 5.42502 12.925C5.50271 12.8473 5.56435 12.7551 5.6064 12.6535C5.64845 12.552 5.67009 12.4432 5.67009 12.3333C5.67009 12.2235 5.64845 12.1146 5.6064 12.0131C5.56435 11.9116 5.50271 11.8194 5.42502 11.7417ZM10.6667 1.5C10.6667 1.72102 10.7545 1.93298 10.9108 2.08926C11.067 2.24554 11.279 2.33334 11.5 2.33334L14.8333 2.33334C15.0544 2.33334 15.2663 2.42113 15.4226 2.57741C15.5789 2.73369 15.6667 2.94566 15.6667 3.16667L15.6667 14.8333C15.6667 15.0543 15.5789 15.2663 15.4226 15.4226C15.2663 15.5789 15.0544 15.6667 14.8333 15.6667L11.5 15.6667C11.279 15.6667 11.067 15.7545 10.9108 15.9107C10.7545 16.067 10.6667 16.279 10.6667 16.5C10.6667 16.721 10.7545 16.933 10.9108 17.0893C11.067 17.2455 11.279 17.3333 11.5 17.3333L14.8333 17.3333C15.4964 17.3333 16.1323 17.0699 16.6011 16.6011C17.07 16.1323 17.3333 15.4964 17.3333 14.8333L17.3333 3.16667C17.3333 2.50363 17.07 1.86774 16.6011 1.3989C16.1323 0.930061 15.4964 0.666669 14.8333 0.666669L11.5 0.666669C11.279 0.666669 11.067 0.754467 10.9108 0.910747C10.7545 1.06703 10.6667 1.27899 10.6667 1.5Z" fill="#6B6B6B"/>
</svg>
