<svg width="14" height="14" viewBox="0 0 14 14" fill="none" xmlns="http://www.w3.org/2000/svg">
<path d="M5.66672 10.6968L4.48672 11.8435C4.1773 12.1529 3.75764 12.3267 3.32005 12.3267C2.88247 12.3267 2.46281 12.1529 2.15339 11.8435C1.84397 11.534 1.67014 11.1144 1.67014 10.6768C1.67014 10.2392 1.84397 9.81954 2.15339 9.51012L5.18005 6.47679C5.47713 6.17875 5.8774 6.00631 6.29806 5.99514C6.71873 5.98397 7.12758 6.13493 7.44005 6.41679L7.52005 6.48345C7.64647 6.60722 7.81688 6.6757 7.99379 6.67383C8.1707 6.67195 8.33962 6.59987 8.46339 6.47345C8.58716 6.34703 8.65563 6.17663 8.65376 5.99972C8.65188 5.82281 8.57981 5.65389 8.45339 5.53012C8.41576 5.48147 8.37571 5.43475 8.33339 5.39012C7.76429 4.895 7.02828 4.63469 6.27443 4.66192C5.52059 4.68915 4.80528 5.00189 4.27339 5.53679L1.20672 8.57012C0.685625 9.13732 0.403801 9.8839 0.420103 10.654C0.436406 11.424 0.749575 12.158 1.29421 12.7026C1.83884 13.2473 2.57283 13.5604 3.34289 13.5767C4.11294 13.593 4.85952 13.3112 5.42672 12.7901L6.58005 11.6635C6.69393 11.5392 6.75653 11.3765 6.75526 11.2079C6.75399 11.0394 6.68894 10.8776 6.57319 10.7551C6.45745 10.6326 6.29961 10.5585 6.13143 10.5477C5.96325 10.5369 5.79721 10.5901 5.66672 10.6968ZM12.7934 1.20345C12.2326 0.646126 11.474 0.333313 10.6834 0.333313C9.89274 0.333313 9.1342 0.646126 8.57339 1.20345L7.42005 2.33012C7.30618 2.45435 7.24358 2.61711 7.24485 2.78563C7.24612 2.95416 7.31117 3.11595 7.42691 3.23844C7.54265 3.36094 7.7005 3.43506 7.86868 3.44589C8.03686 3.45671 8.2029 3.40344 8.33339 3.29679L9.48672 2.15012C9.79614 1.8407 10.2158 1.66687 10.6534 1.66687C11.091 1.66687 11.5106 1.8407 11.8201 2.15012C12.1295 2.45954 12.3033 2.8792 12.3033 3.31679C12.3033 3.75437 12.1295 4.17403 11.8201 4.48345L8.79339 7.51679C8.49631 7.81483 8.09604 7.98727 7.67538 7.99844C7.25472 8.0096 6.84586 7.85864 6.53339 7.57679L6.45339 7.51012C6.32697 7.38635 6.15656 7.31787 5.97965 7.31975C5.80274 7.32163 5.63382 7.3937 5.51005 7.52012C5.38629 7.64654 5.31781 7.81695 5.31968 7.99386C5.32156 8.17077 5.39363 8.33969 5.52005 8.46345C5.56848 8.51298 5.61967 8.55972 5.67339 8.60345C6.24317 9.09709 6.97887 9.35642 7.73225 9.3292C8.48564 9.30199 9.20071 8.99025 9.73339 8.45679L12.7667 5.42345C13.3276 4.86617 13.6452 4.10961 13.6502 3.31895C13.6552 2.5283 13.3472 1.76778 12.7934 1.20345Z" fill="#6B6B6B"/>
</svg>
