<svg width="137" height="50" viewBox="0 0 137 50" fill="none" xmlns="http://www.w3.org/2000/svg">
<path d="M63.4073 29.7454C64.7125 29.7454 65.9557 29.9664 67.0834 30.3997C68.1933 30.8329 69.1878 31.4695 70.0136 32.2918C70.8394 33.1141 71.4787 34.1044 71.9138 35.2184C72.3489 36.3236 72.5708 37.5615 72.5708 38.8612C72.5708 40.1609 72.3489 41.3988 71.9138 42.504C71.4787 43.6269 70.8394 44.6172 70.0136 45.4306C69.1878 46.2529 68.1933 46.8895 67.0834 47.3228C65.9557 47.756 64.7125 47.977 63.4073 47.977H56.4458V29.7454H63.4073ZM59.3938 45.0504H63.4073C65.2631 45.0504 66.817 44.4669 67.9358 43.3705C69.0368 42.2653 69.6229 40.718 69.6229 38.8612C69.6229 37.0044 69.0368 35.466 67.9358 34.3519C66.8259 33.2556 65.2719 32.672 63.4073 32.672H59.3938V45.0416V45.0504Z" fill="#231F20"/>
<path d="M63.4072 48.092H56.3303V29.6216H63.4072C64.7303 29.6216 65.9823 29.8426 67.1277 30.2847C68.2643 30.7268 69.2677 31.3634 70.1023 32.2034C70.937 33.0345 71.5852 34.0336 72.0292 35.1742C72.4642 36.3059 72.6951 37.5438 72.6951 38.8612C72.6951 40.1786 72.4731 41.4253 72.0292 42.5482C71.5941 43.6888 70.9459 44.6879 70.1023 45.519C69.2677 46.3501 68.2643 46.9956 67.1277 47.4377C65.9823 47.8798 64.7303 48.1008 63.4072 48.1008V48.092ZM56.5701 47.8532H63.4072C64.7036 47.8532 65.9201 47.641 67.0389 47.2078C68.14 46.7834 69.1167 46.1556 69.9247 45.3422C70.7416 44.5288 71.3721 43.565 71.7983 42.4509C72.2245 41.3546 72.4465 40.1344 72.4465 38.8524C72.4465 37.5703 72.2334 36.3501 71.7983 35.2449C71.3721 34.1397 70.7416 33.1671 69.9247 32.3537C69.1167 31.5491 68.14 30.9213 67.0389 30.4881C65.9201 30.0637 64.7036 29.8426 63.4072 29.8426H56.5701V47.8532ZM63.4072 45.1654H59.2694V32.557H63.4072C65.2808 32.557 66.8791 33.1494 68.0157 34.2723C69.1433 35.4129 69.7383 36.9956 69.7383 38.8612C69.7383 40.7268 69.1433 42.3183 68.0157 43.4501C66.8791 44.573 65.2808 45.1654 63.4072 45.1654ZM59.5092 44.9266H63.4072C65.2186 44.9266 66.7548 44.3608 67.8469 43.2821C68.9302 42.1945 69.4985 40.6649 69.4985 38.8612C69.4985 37.0575 68.9302 35.5279 67.8469 34.4403C66.7548 33.3616 65.2186 32.7958 63.4072 32.7958H59.5092V44.9266Z" fill="#231F20"/>
<path d="M87.1921 47.977V46.6066C86.7215 46.9426 86.1888 47.2167 85.6205 47.4377C84.7059 47.7914 83.6937 47.9682 82.6281 47.9682C78.2062 47.9682 75.125 44.8913 75.125 40.4969C75.125 39.4271 75.3115 38.428 75.6578 37.5173C76.0129 36.5889 76.5368 35.7843 77.2117 35.1123C77.8954 34.4315 78.7034 33.9187 79.6269 33.565C80.5415 33.2113 81.5537 33.0345 82.6192 33.0345C84.3951 33.0345 85.9579 33.5297 87.1833 34.405V33.0345H90.1224V47.977H87.1833H87.1921ZM79.2895 37.1813C78.4903 37.9859 78.0641 39.1353 78.0641 40.5058C78.0641 41.8762 78.4992 43.0168 79.2895 43.8303C80.0975 44.626 81.2518 45.0504 82.6281 45.0504C84.0044 45.0504 85.1499 44.6172 85.9668 43.8303C86.7659 43.0257 87.1921 41.8762 87.1921 40.5058C87.1921 39.1353 86.7571 37.9947 85.9668 37.1813C85.1588 36.3767 84.0044 35.9611 82.6281 35.9611C81.2518 35.9611 80.1064 36.3767 79.2895 37.1813Z" fill="#231F20"/>
<path d="M90.2556 48.092H87.0679V46.8365C86.6594 47.1017 86.1888 47.3405 85.6649 47.5527C84.7326 47.9152 83.7115 48.092 82.6282 48.092C78.1352 48.092 75.0007 44.9709 75.0007 40.497C75.0007 39.4183 75.1872 38.4015 75.5424 37.4731C75.8976 36.5359 76.4303 35.7136 77.1229 35.0239C77.8155 34.3343 78.6413 33.8038 79.5825 33.4501C80.5149 33.0876 81.536 32.9107 82.6193 32.9107C84.2886 32.9107 85.8159 33.344 87.059 34.1663V32.9107H90.2467V48.092H90.2556ZM87.3165 47.8533H90.0158V33.1406H87.3165V34.6172L87.13 34.4846C85.8958 33.6092 84.3419 33.1406 82.637 33.1406C81.5893 33.1406 80.5948 33.3175 79.6891 33.6623C78.7834 34.0071 77.9842 34.5199 77.3094 35.1831C76.6434 35.8462 76.1284 36.642 75.7821 37.5527C75.4358 38.4545 75.2582 39.4448 75.2582 40.4881C75.2582 44.8206 78.295 47.8444 82.6459 47.8444C83.6937 47.8444 84.6882 47.6676 85.5939 47.3228C86.1888 47.084 86.7038 46.8099 87.1389 46.5005L87.3343 46.359V47.8444L87.3165 47.8533ZM82.6282 45.1654C81.2341 45.1654 80.0531 44.7321 79.2096 43.9099C78.3838 43.0699 77.9487 41.8939 77.9487 40.5058C77.9487 39.1176 78.3838 37.9417 79.2096 37.1017C80.0354 36.2794 81.2163 35.8462 82.6282 35.8462C84.04 35.8462 85.221 36.2794 86.0467 37.1017C86.8725 37.9417 87.3076 39.1176 87.3076 40.5058C87.3076 41.8939 86.8725 43.0787 86.0467 43.9099C85.2032 44.7321 84.0222 45.1654 82.6282 45.1654ZM79.3783 37.2609C78.5969 38.0478 78.1796 39.1707 78.1796 40.497C78.1796 41.8232 78.588 42.9461 79.3783 43.733C80.1686 44.5111 81.2963 44.9178 82.6282 44.9178C83.9601 44.9178 85.0789 44.5023 85.878 43.7242C86.6594 42.9373 87.0679 41.8144 87.0679 40.4881C87.0679 39.1618 86.6594 38.0389 85.878 37.252C85.0966 36.474 83.9778 36.0672 82.6282 36.0672C81.2785 36.0672 80.1597 36.474 79.3783 37.252V37.2609Z" fill="#231F20"/>
<path d="M100.02 33.0257V35.9523H95.6245V42.1415C95.6245 42.8488 95.7577 43.4943 96.0152 44.0602C96.2549 44.5818 96.5923 45.0151 97.0363 45.351L98.1995 46.2352L96.4236 48.5694L95.2427 47.6853C94.4169 47.0487 93.7776 46.2529 93.3336 45.2892C92.8985 44.3342 92.6765 43.2821 92.6765 42.1503V29.7454H95.6156V33.0257H100.011H100.02Z" fill="#231F20"/>
<path d="M96.4416 48.7286L95.1718 47.7737C94.3283 47.1194 93.6712 46.2971 93.2272 45.3333C92.7833 44.3608 92.5613 43.2909 92.5613 42.1415V29.6216H95.749V32.9019H100.144V36.0672H95.749V42.1326C95.749 42.8311 95.8733 43.4589 96.1308 43.9982C96.3528 44.5022 96.6902 44.9178 97.1164 45.2449L98.3773 46.1998L96.4505 48.7197L96.4416 48.7286ZM92.801 29.8603V42.1326C92.801 43.2467 93.0141 44.2812 93.4403 45.2184C93.8666 46.1468 94.497 46.9425 95.3139 47.5703L96.3972 48.3837L98.031 46.244L96.9655 45.4306C96.5037 45.0769 96.1486 44.6349 95.9088 44.0955C95.6424 43.5208 95.5092 42.8665 95.5092 42.1326V35.8285H99.9046V33.1406H95.5092V29.8603H92.8099H92.801Z" fill="#231F20"/>
<path d="M114.65 47.977V46.6066C114.179 46.9426 113.647 47.2167 113.078 47.4377C112.164 47.7914 111.151 47.9682 110.086 47.9682C105.664 47.9682 102.583 44.8913 102.583 40.4969C102.583 39.4271 102.769 38.428 103.116 37.5173C103.471 36.5889 103.995 35.7843 104.669 35.1123C105.353 34.4315 106.161 33.9187 107.085 33.565C107.999 33.2113 109.011 33.0345 110.077 33.0345C111.853 33.0345 113.416 33.5297 114.641 34.405V33.0345H117.58V47.977H114.641H114.65ZM106.747 37.1813C105.948 37.9859 105.522 39.1353 105.522 40.5058C105.522 41.8762 105.957 43.0168 106.747 43.8303C107.555 44.626 108.71 45.0504 110.086 45.0504C111.462 45.0504 112.608 44.6172 113.425 43.8303C114.224 43.0257 114.65 41.8762 114.65 40.5058C114.65 39.1353 114.215 37.9947 113.425 37.1813C112.617 36.3767 111.462 35.9611 110.086 35.9611C108.71 35.9611 107.564 36.3767 106.747 37.1813Z" fill="#231F20"/>
<path d="M117.704 48.092H114.517V46.8365C114.108 47.1017 113.638 47.3405 113.114 47.5527C112.181 47.9152 111.16 48.092 110.077 48.092C105.584 48.092 102.449 44.9709 102.449 40.497C102.449 39.4183 102.636 38.4015 102.991 37.4731C103.346 36.5359 103.879 35.7136 104.572 35.0239C105.264 34.3343 106.09 33.8038 107.031 33.4501C107.964 33.0876 108.985 32.9107 110.068 32.9107C111.737 32.9107 113.265 33.344 114.508 34.1663V32.9107H117.695V48.092H117.704ZM114.765 47.8533H117.465V33.1406H114.765V34.6172L114.579 34.4846C113.345 33.6092 111.791 33.1406 110.086 33.1406C109.038 33.1406 108.044 33.3175 107.138 33.6623C106.232 34.0071 105.433 34.5199 104.758 35.1831C104.092 35.8462 103.577 36.642 103.231 37.5527C102.885 38.4545 102.707 39.4448 102.707 40.4881C102.707 44.8206 105.744 47.8444 110.095 47.8444C111.142 47.8444 112.137 47.6676 113.043 47.3228C113.638 47.084 114.153 46.8099 114.588 46.5005L114.783 46.359V47.8444L114.765 47.8533ZM110.077 45.1654C108.683 45.1654 107.502 44.7321 106.658 43.9099C105.833 43.0699 105.397 41.8939 105.397 40.5058C105.397 39.1176 105.833 37.9417 106.658 37.1017C107.484 36.2794 108.665 35.8462 110.077 35.8462C111.489 35.8462 112.67 36.2794 113.495 37.1017C114.321 37.9417 114.756 39.1176 114.756 40.5058C114.756 41.8939 114.321 43.0787 113.495 43.9099C112.652 44.7321 111.471 45.1654 110.077 45.1654ZM106.827 37.2609C106.046 38.0478 105.628 39.1707 105.628 40.497C105.628 41.8232 106.037 42.9461 106.827 43.733C107.617 44.5111 108.745 44.9178 110.077 44.9178C111.409 44.9178 112.528 44.5023 113.327 43.7242C114.108 42.9373 114.517 41.8144 114.517 40.4881C114.517 39.1618 114.108 38.0389 113.327 37.252C112.545 36.474 111.427 36.0672 110.077 36.0672C108.727 36.0672 107.608 36.474 106.827 37.252V37.2609Z" fill="#231F20"/>
<path d="M66.7015 6.82226C67.4474 6.82226 68.1489 6.95488 68.7971 7.20245C69.463 7.45002 70.0402 7.83021 70.5197 8.30767C70.9992 8.78512 71.381 9.35984 71.6296 10.023C71.8783 10.6596 72.0114 11.3669 72.0114 12.1096C72.0114 12.8523 71.8783 13.5508 71.6296 14.2051C71.381 14.8594 70.9992 15.4253 70.5197 15.9116L70.4931 15.9381L70.5197 15.9646C70.9992 16.4421 71.381 17.0168 71.6296 17.6711C71.8783 18.3254 72.0114 19.0238 72.0114 19.7666C72.0114 20.5093 71.8783 21.2078 71.6296 21.8532C71.381 22.5163 70.9992 23.091 70.5197 23.5685C70.0402 24.046 69.463 24.4261 68.7971 24.6737C68.1578 24.9213 67.4474 25.0539 66.7015 25.0539H56.4458V6.82226H66.7015ZM59.3938 14.4792H66.7015C68.1755 14.4792 69.0724 13.595 69.0724 12.1096C69.0724 10.6242 68.1844 9.74887 66.7015 9.74887H59.3938V14.4792ZM59.3938 22.1273H66.7015C68.1755 22.1273 69.0724 21.2431 69.0724 19.7666C69.0724 18.29 68.1844 17.4058 66.7015 17.4058H59.3938V22.1185V22.1273Z" fill="#231F20"/>
<path d="M66.7015 25.1688H56.3303V6.69846H66.7015C67.4562 6.69846 68.1755 6.83109 68.8414 7.0875C69.5074 7.33507 70.1023 7.71526 70.6084 8.21924C71.1146 8.72322 71.4964 9.31562 71.745 9.97875C72.0025 10.6419 72.1357 11.3581 72.1357 12.1008C72.1357 12.8435 72.0025 13.5685 71.745 14.2405C71.5053 14.8682 71.1412 15.4429 70.6617 15.9292C71.1412 16.4155 71.5053 16.9902 71.745 17.618C72.0025 18.29 72.1357 19.015 72.1357 19.7577C72.1357 20.5004 72.0025 21.2254 71.745 21.8886C71.4964 22.5517 71.1146 23.1441 70.6084 23.6481C70.1023 24.152 69.5074 24.5322 68.8414 24.7798C68.1755 25.0362 67.4651 25.1688 66.7104 25.1688H66.7015ZM56.5701 24.9301H66.7015C67.4296 24.9301 68.1133 24.8063 68.7526 24.5588C69.392 24.32 69.9514 23.9575 70.4397 23.4801C70.9192 23.0026 71.2833 22.4367 71.523 21.809C71.7716 21.1724 71.896 20.4916 71.896 19.7665C71.896 19.0415 71.7716 18.3607 71.523 17.7153C71.2833 17.0875 70.9192 16.5305 70.4397 16.053L70.3243 15.9469L70.4397 15.832C70.9192 15.3545 71.2833 14.7975 71.523 14.1697C71.7716 13.5243 71.896 12.8346 71.896 12.1184C71.896 11.4023 71.7716 10.7126 71.523 10.076C71.2833 9.44824 70.9192 8.88237 70.4397 8.39608C69.9602 7.91862 69.392 7.54727 68.7526 7.31739C68.1133 7.06982 67.4296 6.94603 66.7015 6.94603H56.5701V24.939V24.9301ZM66.7015 22.2422H59.2694V17.2909H66.7015C68.2554 17.2909 69.1877 18.2192 69.1877 19.7665C69.1877 21.3138 68.2376 22.2422 66.7015 22.2422ZM59.5092 22.0035H66.7015C68.1044 22.0035 68.948 21.1635 68.948 19.7665C68.948 18.3696 68.1311 17.5296 66.7015 17.5296H59.5092V22.0035ZM66.7015 14.603H59.2694V9.63392H66.7015C68.2376 9.63392 69.1877 10.58 69.1877 12.1096C69.1877 13.6392 68.2554 14.603 66.7015 14.603ZM59.5092 14.3642H66.7015C68.1044 14.3642 68.948 13.5243 68.948 12.1184C68.948 10.7126 68.1044 9.88149 66.7015 9.88149H59.5092V14.3642Z" fill="#231F20"/>
<path d="M82.924 13.0291C81.5477 13.0291 80.4023 13.4447 79.5854 14.2493C78.7862 15.0539 78.36 16.2033 78.36 17.5738V25.045H75.4209V10.0937H78.36V11.4641C78.8306 11.1282 79.3634 10.8364 79.9317 10.633C80.8462 10.2794 81.8585 10.1025 82.924 10.1025H84.3891V13.0291H82.924Z" fill="#231F20"/>
<path d="M78.4756 25.1688H75.2878V9.97875H78.4756V11.2343C78.9107 10.9425 79.3901 10.6949 79.8785 10.5181C80.8108 10.1556 81.832 9.97875 82.9153 9.97875H84.4958V13.1441H82.9153C81.5656 13.1441 80.4468 13.5597 79.6654 14.3289C78.884 15.1158 78.4756 16.2387 78.4756 17.565V25.16V25.1688ZM75.5365 24.9301H78.2358V17.5738C78.2358 16.1856 78.6709 15.0097 79.4967 14.1697C80.3225 13.3475 81.5034 12.9142 82.9153 12.9142H84.2561V10.2263H82.9153C81.8675 10.2263 80.873 10.4032 79.9673 10.748C79.4257 10.9513 78.8929 11.2343 78.4223 11.5703L78.2269 11.7029V10.2175H75.5276V24.9301H75.5365Z" fill="#231F20"/>
<path d="M90.2142 5.52252C90.2142 6.32712 89.5483 6.9814 88.7403 6.9814C87.9322 6.9814 87.2751 6.32712 87.2751 5.52252C87.2751 4.71792 87.9322 4.05479 88.7403 4.05479C89.5483 4.05479 90.2142 4.71792 90.2142 5.52252ZM87.2751 25.0539V10.1025H90.2142V25.0539H87.2751Z" fill="#231F20"/>
<path d="M90.3296 25.1688H87.1418V9.97875H90.3296V25.1688ZM87.3905 24.9301H90.0898V10.2175H87.3905V24.9301ZM88.7313 7.09635C87.8611 7.09635 87.1418 6.38901 87.1418 5.51368C87.1418 4.63834 87.8522 3.92216 88.7313 3.92216C89.6103 3.92216 90.3296 4.63834 90.3296 5.51368C90.3296 6.38901 89.6103 7.09635 88.7313 7.09635ZM88.7313 4.16973C87.9943 4.16973 87.3905 4.77981 87.3905 5.52252C87.3905 6.26522 87.9943 6.85762 88.7313 6.85762C89.4683 6.85762 90.0898 6.25638 90.0898 5.52252C90.0898 4.78865 89.4771 4.16973 88.7313 4.16973Z" fill="#231F20"/>
<path d="M107.84 24.6825C107.84 25.8143 107.618 26.8664 107.183 27.8214C106.739 28.7851 106.1 29.5809 105.274 30.2175L104.111 31.1016L102.317 28.7674L103.48 27.8832C103.924 27.5473 104.262 27.114 104.501 26.5924C104.759 26.0353 104.892 25.381 104.892 24.6737V23.6746C104.421 24.0106 103.889 24.2847 103.32 24.5057C102.406 24.8594 101.394 25.0362 100.328 25.0362C95.9061 25.0362 92.825 21.9593 92.825 17.5649C92.825 12.7992 96.1991 10.0937 100.328 10.0937C102.104 10.0937 103.667 10.5888 104.892 11.4641V10.0937H107.831V24.6737L107.84 24.6825ZM96.9983 14.2493C96.1991 15.0539 95.7729 16.2033 95.7729 17.5738C95.7729 18.9443 96.208 20.0848 96.9983 20.8983C97.8063 21.694 98.9606 22.1184 100.337 22.1184C101.713 22.1184 102.859 21.6852 103.676 20.8983C104.475 20.0937 104.901 18.9443 104.901 17.5738C104.901 16.2033 104.466 15.0627 103.676 14.2493C102.868 13.4535 101.713 13.0291 100.337 13.0291C98.9606 13.0291 97.8152 13.4624 96.9983 14.2493Z" fill="#231F20"/>
<path d="M104.093 31.2696L102.157 28.7498L103.418 27.7948C103.844 27.4677 104.173 27.0521 104.404 26.557C104.661 26.0177 104.785 25.3899 104.785 24.6914V23.9133C104.377 24.1786 103.906 24.4173 103.382 24.6295C102.45 24.992 101.429 25.1688 100.346 25.1688C95.8527 25.1688 92.7183 22.0477 92.7183 17.5738C92.7183 13.0999 95.7817 9.97875 100.346 9.97875C102.015 9.97875 103.542 10.412 104.785 11.2343V9.97875H107.973V24.6826C107.973 25.8231 107.751 26.9018 107.307 27.8744C106.863 28.8382 106.206 29.6604 105.363 30.3147L104.102 31.2696H104.093ZM102.495 28.794L104.137 30.9337L105.203 30.1202C106.02 29.4925 106.65 28.6967 107.076 27.7683C107.503 26.8311 107.716 25.7878 107.716 24.6826V10.2175H105.016V11.694L104.83 11.5614C103.596 10.6861 102.042 10.2175 100.337 10.2175C95.9149 10.2175 92.9491 13.1706 92.9491 17.5738C92.9491 21.977 95.9859 24.9301 100.337 24.9301C101.385 24.9301 102.379 24.7533 103.285 24.4085C103.88 24.1697 104.395 23.8956 104.83 23.5862L105.025 23.4447V24.6826C105.025 25.4164 104.892 26.0707 104.626 26.6454C104.386 27.1848 104.031 27.6269 103.569 27.9805L102.503 28.794H102.495ZM100.337 22.2334C98.9427 22.2334 97.7618 21.8001 96.9182 20.9779C96.0924 20.1379 95.6574 18.962 95.6574 17.5738C95.6574 16.1856 96.0924 15.0097 96.9182 14.1697C97.7618 13.3475 98.9427 12.9142 100.337 12.9142C101.731 12.9142 102.912 13.3475 103.755 14.1697C104.581 15.0097 105.016 16.1856 105.016 17.5738C105.016 18.962 104.581 20.1467 103.755 20.9779C102.912 21.8001 101.731 22.2334 100.337 22.2334ZM97.0869 14.3289C96.3055 15.1158 95.8971 16.2387 95.8971 17.565C95.8971 18.8912 96.3056 20.0141 97.0958 20.801C97.8861 21.5791 99.0138 21.9858 100.346 21.9858C101.678 21.9858 102.796 21.5703 103.596 20.7922C104.377 20.0053 104.785 18.8824 104.785 17.5561C104.785 16.2299 104.377 15.107 103.596 14.32C102.805 13.542 101.678 13.1352 100.346 13.1352C99.0138 13.1352 97.8861 13.5508 97.0958 14.32L97.0869 14.3289Z" fill="#231F20"/>
<path d="M114.713 11.473C115.192 11.137 115.716 10.8452 116.284 10.6419C117.199 10.2882 118.211 10.1114 119.277 10.1114C123.699 10.1114 126.78 13.1883 126.78 17.5826V25.0539H123.841V17.5826C123.841 16.2121 123.423 15.0716 122.615 14.2581C121.807 13.4535 120.653 13.038 119.277 13.038C117.9 13.038 116.755 13.4535 115.938 14.2581C115.139 15.0627 114.713 16.2121 114.713 17.5826V25.0539H111.773V4.62948H114.713V11.4641V11.473Z" fill="#231F20"/>
<path d="M126.904 25.1688H123.716V17.5738C123.716 16.2387 123.308 15.1158 122.526 14.3377C121.745 13.5596 120.626 13.1441 119.277 13.1441C117.927 13.1441 116.808 13.5596 116.027 14.3289C115.245 15.1158 114.837 16.2387 114.837 17.5649V25.16H111.649V4.51455H114.837V11.2431C115.299 10.9425 115.769 10.7038 116.24 10.5269C117.172 10.1644 118.193 9.98758 119.277 9.98758C123.77 9.98758 126.904 13.1087 126.904 17.5826V25.1777V25.1688ZM123.965 24.9301H126.664V17.5738C126.664 13.2413 123.628 10.2175 119.277 10.2175C118.229 10.2175 117.234 10.3943 116.329 10.7391C115.805 10.9336 115.29 11.2077 114.784 11.5614L114.597 11.694V4.74443H111.898V24.9213H114.597V17.5649C114.597 16.1768 115.032 15.0008 115.858 14.1609C116.684 13.3386 117.865 12.9054 119.277 12.9054C120.688 12.9054 121.869 13.3386 122.695 14.1609C123.521 14.9832 123.956 16.1591 123.956 17.5649V24.9213L123.965 24.9301Z" fill="#231F20"/>
<path d="M136.867 10.1025V13.0292H132.471V19.2184C132.471 19.9257 132.605 20.5712 132.862 21.137C133.102 21.6587 133.439 22.0919 133.883 22.4279L135.046 23.3121L133.271 25.6463L132.09 24.7621C131.264 24.1255 130.624 23.3298 130.181 22.366C129.745 21.4111 129.523 20.359 129.523 19.2272V6.8311H132.463V10.1114H136.858L136.867 10.1025Z" fill="#231F20"/>
<path d="M133.297 25.8054L132.027 24.8505C131.184 24.1963 130.527 23.374 130.083 22.4102C129.639 21.4376 129.417 20.3678 129.417 19.2184V6.69846H132.604V9.97875H137V13.1441H132.604V19.2095C132.604 19.908 132.729 20.5358 132.986 21.0751C133.208 21.5791 133.546 21.9947 133.972 22.3218L135.233 23.2767L133.306 25.7966L133.297 25.8054ZM129.656 6.93719V19.2095C129.656 20.3236 129.87 21.3581 130.296 22.2953C130.722 23.2237 131.352 24.0194 132.169 24.6472L133.253 25.4606L134.886 23.3209L133.821 22.5075C133.359 22.1538 133.004 21.7117 132.764 21.1724C132.498 20.5977 132.365 19.9434 132.365 19.2095V12.9054H136.76V10.2175H132.365V6.93719H129.665H129.656Z" fill="#231F20"/>
<path d="M19.3128 29.9735L10.4156 40.5128H30.1013V50H0V20.0177H10.4156V10.5217H19.3128V20.0177H30.1013V29.9735H19.3128Z" fill="#2E3192"/>
<path d="M49.414 0V29.9735L40.5168 40.5128V10.5217L49.414 0Z" fill="#2E3192"/>
<path d="M49.414 0L40.5168 10.5217H10.4155L19.3127 0H49.414Z" fill="#EC008C"/>
<path d="M40.5168 29.9735V40.5128H10.4155L19.3127 29.9735H40.5168Z" fill="#00ED0B"/>
</svg>
