<svg width="560" height="100" viewBox="0 0 560 100" fill="none" xmlns="http://www.w3.org/2000/svg">
<path d="M363.034 11.4258C367.769 11.4258 372.279 12.2341 376.369 13.8183C380.396 15.4025 384.003 17.7303 386.999 20.7371C389.995 23.7439 392.314 27.365 393.892 31.4387C395.47 35.48 396.276 40.0064 396.276 44.759C396.276 49.5117 395.47 54.038 393.892 58.0794C392.314 62.1855 389.995 65.8065 386.999 68.781C384.003 71.7878 380.396 74.1156 376.369 75.6998C372.279 77.284 367.769 78.0923 363.034 78.0923H337.781V11.4258H363.034ZM348.475 67.3907H363.034C369.766 67.3907 375.403 65.2569 379.462 61.2479C383.456 57.2065 385.582 51.5486 385.582 44.759C385.582 37.9695 383.456 32.3439 379.462 28.2702C375.435 24.2612 369.798 22.1273 363.034 22.1273H348.475V67.3584V67.3907Z" fill="#231F20"/>
<path d="M363.034 78.5014H337.363V10.9619H363.034C367.834 10.9619 372.375 11.7702 376.531 13.3867C380.654 15.0033 384.293 17.3311 387.321 20.4026C390.349 23.4417 392.7 27.0951 394.311 31.2658C395.889 35.4042 396.727 39.9305 396.727 44.7478C396.727 49.5651 395.921 54.1238 394.311 58.2298C392.733 62.4005 390.381 66.0539 387.321 69.0931C384.293 72.1322 380.654 74.4923 376.531 76.1089C372.375 77.7254 367.834 78.5337 363.034 78.5337V78.5014ZM338.232 77.6284H363.034C367.737 77.6284 372.15 76.8525 376.209 75.2683C380.203 73.7164 383.746 71.4209 386.677 68.4464C389.64 65.472 391.927 61.9479 393.473 57.8742C395.02 53.8652 395.825 49.4035 395.825 44.7155C395.825 40.0275 395.052 35.5658 393.473 31.5244C391.927 27.4831 389.64 23.9266 386.677 20.9522C383.746 18.0101 380.203 15.7146 376.209 14.1304C372.15 12.5785 367.737 11.7702 363.034 11.7702H338.232V77.6284ZM363.034 67.7998H348.024V21.6958H363.034C369.831 21.6958 375.629 23.862 379.752 27.968C383.842 32.1387 386.001 37.926 386.001 44.7478C386.001 51.5697 383.842 57.3892 379.752 61.5276C375.629 65.6336 369.831 67.7998 363.034 67.7998ZM348.894 66.9269H363.034C369.605 66.9269 375.178 64.8577 379.14 60.9133C383.069 56.9366 385.131 51.3433 385.131 44.7478C385.131 38.1523 383.069 32.559 379.14 28.5823C375.178 24.6379 369.605 22.5687 363.034 22.5687H348.894V66.9269Z" fill="#231F20"/>
<path d="M449.316 78.0769V73.0656C447.609 74.2942 445.676 75.2964 443.614 76.1047C440.297 77.3979 436.625 78.0446 432.759 78.0446C416.719 78.0446 405.542 66.7934 405.542 50.7249C405.542 46.8128 406.218 43.1594 407.474 39.8293C408.763 36.4346 410.663 33.4924 413.111 31.0353C415.591 28.5458 418.522 26.6706 421.872 25.3774C425.19 24.0841 428.862 23.4375 432.727 23.4375C439.169 23.4375 444.838 25.248 449.284 28.4488V23.4375H459.945V78.0769H449.284H449.316ZM420.648 38.6007C417.749 41.5429 416.203 45.7459 416.203 50.7572C416.203 55.7685 417.782 59.9392 420.648 62.9137C423.579 65.8234 427.767 67.3753 432.759 67.3753C437.752 67.3753 441.907 65.7911 444.871 62.9137C447.77 59.9715 449.316 55.7685 449.316 50.7572C449.316 45.7459 447.737 41.5752 444.871 38.6007C441.94 35.6586 437.752 34.1391 432.759 34.1391C427.767 34.1391 423.612 35.6586 420.648 38.6007Z" fill="#231F20"/>
<path d="M460.428 78.5104H448.865V73.9194C447.383 74.8893 445.676 75.7622 443.775 76.5382C440.393 77.8638 436.689 78.5104 432.759 78.5104C416.461 78.5104 405.09 67.0975 405.09 50.738C405.09 46.7937 405.767 43.0756 407.055 39.6808C408.344 36.2538 410.276 33.247 412.789 30.7252C415.301 28.2033 418.297 26.2635 421.711 24.9702C425.093 23.6447 428.797 22.998 432.727 22.998C438.783 22.998 444.323 24.5823 448.832 27.589V22.998H460.396V78.5104H460.428ZM449.767 77.6374H459.559V23.8387H449.767V29.2379L449.09 28.753C444.613 25.5522 438.976 23.8387 432.792 23.8387C428.991 23.8387 425.383 24.4853 422.098 25.7462C418.812 27.0071 415.913 28.8823 413.465 31.3071C411.049 33.7319 409.181 36.6417 407.925 39.9718C406.669 43.2696 406.025 46.8907 406.025 50.7057C406.025 66.5479 417.041 77.6051 432.824 77.6051C436.625 77.6051 440.232 76.9585 443.518 75.6976C445.676 74.8246 447.544 73.8224 449.122 72.6908L449.831 72.1735V77.6051L449.767 77.6374ZM432.759 67.8088C427.702 67.8088 423.418 66.2246 420.358 63.2178C417.363 60.1464 415.784 55.8463 415.784 50.7704C415.784 45.6944 417.363 41.3944 420.358 38.3229C423.354 35.3162 427.638 33.7319 432.759 33.7319C437.881 33.7319 442.165 35.3162 445.16 38.3229C448.156 41.3944 449.734 45.6944 449.734 50.7704C449.734 55.8463 448.156 60.1787 445.16 63.2178C442.1 66.2246 437.816 67.8088 432.759 67.8088ZM420.97 38.9049C418.136 41.7824 416.622 45.8884 416.622 50.738C416.622 55.5877 418.104 59.6937 420.97 62.5712C423.837 65.4163 427.928 66.9035 432.759 66.9035C437.591 66.9035 441.65 65.384 444.548 62.5389C447.383 59.6614 448.865 55.5554 448.865 50.7057C448.865 45.8561 447.383 41.75 444.548 38.8726C441.714 36.0274 437.655 34.5402 432.759 34.5402C427.863 34.5402 423.805 36.0274 420.97 38.8726V38.9049Z" fill="#231F20"/>
<path d="M495.849 23.4206V34.1221H479.905V56.7538C479.905 59.3403 480.388 61.7005 481.322 63.7697C482.192 65.6772 483.416 67.2614 485.026 68.49L489.246 71.7231L482.804 80.2585L478.52 77.0254C475.524 74.6976 473.205 71.7878 471.594 68.2637C470.016 64.7719 469.211 60.9245 469.211 56.7862V11.4258H479.872V23.4206H495.817H495.849Z" fill="#231F20"/>
<path d="M482.868 80.8292L478.262 77.3375C475.202 74.945 472.819 71.9382 471.208 68.4141C469.598 64.8577 468.792 60.9456 468.792 56.7426V10.9619H480.356V22.9567H496.3V34.5312H480.356V56.7103C480.356 59.2644 480.807 61.5599 481.741 63.5321C482.546 65.375 483.77 66.8946 485.316 68.0908L489.89 71.5825L482.901 80.7969L482.868 80.8292ZM469.662 11.8349V56.7103C469.662 60.784 470.435 64.5667 471.981 67.9938C473.527 71.3886 475.814 74.2983 478.778 76.5938L482.707 79.5683L488.634 71.7442L484.769 68.7697C483.094 67.4765 481.805 65.86 480.936 63.8878C479.969 61.7863 479.486 59.3938 479.486 56.7103V33.6583H495.43V23.8297H479.486V11.8349H469.694H469.662Z" fill="#231F20"/>
<path d="M548.92 78.0769V73.0656C547.213 74.2942 545.28 75.2964 543.218 76.1047C539.901 77.3979 536.229 78.0446 532.363 78.0446C516.323 78.0446 505.146 66.7934 505.146 50.7249C505.146 46.8128 505.822 43.1594 507.078 39.8293C508.367 36.4346 510.267 33.4924 512.715 31.0353C515.195 28.5458 518.126 26.6706 521.476 25.3774C524.794 24.0841 528.466 23.4375 532.331 23.4375C538.773 23.4375 544.442 25.248 548.888 28.4488V23.4375H559.549V78.0769H548.888H548.92ZM520.252 38.6007C517.353 41.5429 515.807 45.7459 515.807 50.7572C515.807 55.7685 517.386 59.9392 520.252 62.9137C523.183 65.8234 527.371 67.3753 532.363 67.3753C537.356 67.3753 541.511 65.7911 544.475 62.9137C547.374 59.9715 548.92 55.7685 548.92 50.7572C548.92 45.7459 547.341 41.5752 544.475 38.6007C541.544 35.6586 537.356 34.1391 532.363 34.1391C527.371 34.1391 523.216 35.6586 520.252 38.6007Z" fill="#231F20"/>
<path d="M560 78.5104H548.436V73.9194C546.955 74.8893 545.247 75.7622 543.347 76.5382C539.965 77.8638 536.261 78.5104 532.331 78.5104C516.032 78.5104 504.662 67.0975 504.662 50.738C504.662 46.7937 505.339 43.0756 506.627 39.6808C507.915 36.2538 509.848 33.247 512.36 30.7252C514.873 28.2033 517.868 26.2635 521.283 24.9702C524.665 23.6447 528.369 22.998 532.299 22.998C538.354 22.998 543.895 24.5823 548.404 27.589V22.998H559.968V78.5104H560ZM549.338 77.6374H559.13V23.8387H549.338V29.2379L548.662 28.753C544.185 25.5522 538.548 23.8387 532.363 23.8387C528.562 23.8387 524.955 24.4853 521.669 25.7462C518.384 27.0071 515.485 28.8823 513.037 31.3071C510.621 33.7319 508.753 36.6417 507.497 39.9718C506.24 43.2696 505.596 46.8907 505.596 50.7057C505.596 66.5479 516.612 77.6051 532.395 77.6051C536.196 77.6051 539.804 76.9585 543.089 75.6976C545.247 74.8246 547.116 73.8224 548.694 72.6908L549.403 72.1735V77.6051L549.338 77.6374ZM532.331 67.8088C527.274 67.8088 522.99 66.2246 519.93 63.2178C516.934 60.1464 515.356 55.8463 515.356 50.7704C515.356 45.6944 516.934 41.3944 519.93 38.3229C522.926 35.3162 527.21 33.7319 532.331 33.7319C537.453 33.7319 541.737 35.3162 544.732 38.3229C547.728 41.3944 549.306 45.6944 549.306 50.7704C549.306 55.8463 547.728 60.1787 544.732 63.2178C541.672 66.2246 537.388 67.8088 532.331 67.8088ZM520.542 38.9049C517.707 41.7824 516.194 45.8884 516.194 50.738C516.194 55.5877 517.675 59.6937 520.542 62.5712C523.409 65.4163 527.499 66.9035 532.331 66.9035C537.163 66.9035 541.221 65.384 544.12 62.5389C546.955 59.6614 548.436 55.5554 548.436 50.7057C548.436 45.8561 546.955 41.75 544.12 38.8726C541.286 36.0274 537.227 34.5402 532.331 34.5402C527.435 34.5402 523.376 36.0274 520.542 38.8726V38.9049Z" fill="#231F20"/>
<path d="M37.622 10.5957C40.3277 10.5957 42.8723 11.0807 45.2237 11.9859C47.6395 12.8912 49.7332 14.2814 51.4726 16.0273C53.2119 17.7732 54.597 19.8747 55.4989 22.2995C56.4008 24.6274 56.8839 27.2138 56.8839 29.9296C56.8839 32.6454 56.4008 35.1996 55.4989 37.5921C54.597 39.9846 53.2119 42.0538 51.4726 43.832L51.3759 43.929L51.4726 44.026C53.2119 45.7718 54.597 47.8733 55.4989 50.2658C56.4008 52.6583 56.8839 55.2125 56.8839 57.9283C56.8839 60.6441 56.4008 63.1982 55.4989 65.5584C54.597 67.9832 53.2119 70.0848 51.4726 71.8306C49.7332 73.5765 47.6395 74.9667 45.2237 75.872C42.9045 76.7773 40.3277 77.2622 37.622 77.2622H0.418701V10.5957H37.622ZM11.1126 38.5943H37.622C42.9689 38.5943 46.2222 35.3612 46.2222 29.9296C46.2222 24.498 43.0012 21.2973 37.622 21.2973H11.1126V38.5943ZM11.1126 66.5607H37.622C42.9689 66.5607 46.2222 63.3276 46.2222 57.9283C46.2222 52.529 43.0012 49.2959 37.622 49.2959H11.1126V66.5283V66.5607Z" fill="#231F20"/>
<path d="M37.6221 77.6957H0.00012207V10.1562H37.6221C40.36 10.1562 42.9691 10.6412 45.3849 11.5788C47.8007 12.4841 49.9588 13.8743 51.7948 15.7172C53.6308 17.5601 55.0159 19.7262 55.9178 22.151C56.8519 24.5759 57.335 27.1947 57.335 29.9105C57.335 32.6263 56.8519 35.2774 55.9178 37.7346C55.0481 40.0301 53.7274 42.1316 51.9881 43.9098C53.7274 45.688 55.0481 47.7895 55.9178 50.085C56.8519 52.5422 57.335 55.1933 57.335 57.9091C57.335 60.625 56.8519 63.2761 55.9178 65.7009C55.0159 68.1257 53.6308 70.2919 51.7948 72.1348C49.9588 73.9777 47.8007 75.3679 45.3849 76.2732C42.9691 77.2108 40.3922 77.6957 37.6543 77.6957H37.6221ZM0.869798 76.8228H37.6221C40.2634 76.8228 42.7436 76.3701 45.0628 75.4649C47.3819 74.5919 49.4112 73.2664 51.1828 71.5205C52.9222 69.7746 54.2428 67.7054 55.1125 65.4099C56.0144 63.0821 56.4653 60.5926 56.4653 57.9415C56.4653 55.2903 56.0144 52.8008 55.1125 50.4407C54.2428 48.1452 52.9222 46.1083 51.1828 44.3625L50.7641 43.9745L51.1828 43.5542C52.9222 41.8083 54.2428 39.7715 55.1125 37.476C56.0144 35.1158 56.4653 32.594 56.4653 29.9752C56.4653 27.3563 56.0144 24.8345 55.1125 22.5067C54.2428 20.2112 52.9222 18.142 51.1828 16.3638C49.4434 14.6179 47.3819 13.26 45.0628 12.4194C42.7436 11.5142 40.2634 11.0615 37.6221 11.0615H0.869798V76.8551V76.8228ZM37.6221 66.9942H10.6618V48.8888H37.6221C43.259 48.8888 46.6411 52.2835 46.6411 57.9415C46.6411 63.5994 43.1946 66.9942 37.6221 66.9942ZM11.5315 66.1212H37.6221C42.7114 66.1212 45.7714 63.0498 45.7714 57.9415C45.7714 52.8332 42.808 49.7617 37.6221 49.7617H11.5315V66.1212ZM37.6221 39.0602H10.6618V20.8901H37.6221C43.1946 20.8901 46.6411 24.3496 46.6411 29.9428C46.6411 35.5361 43.259 39.0602 37.6221 39.0602ZM11.5315 38.1872H37.6221C42.7114 38.1872 45.7714 35.1158 45.7714 29.9752C45.7714 24.8345 42.7114 21.7954 37.6221 21.7954H11.5315V38.1872Z" fill="#231F20"/>
<path d="M96.4705 33.2925C91.4779 33.2925 87.3227 34.812 84.3594 37.7542C81.4604 40.6963 79.9143 44.8993 79.9143 49.9106V77.2303H69.2526V22.5586H79.9143V27.5699C81.6214 26.3413 83.5541 25.2744 85.6156 24.5308C88.9333 23.2375 92.6053 22.5909 96.4705 22.5909H101.785V33.2925H96.4705Z" fill="#231F20"/>
<path d="M80.333 77.6882H68.7694V22.1436H80.333V26.7346C81.9114 25.6676 83.6507 24.7624 85.4223 24.1157C88.8044 22.7902 92.5086 22.1436 96.4383 22.1436H102.172V33.7181H96.4383C91.5423 33.7181 87.4838 35.2376 84.6492 38.0504C81.8147 40.9279 80.333 45.0339 80.333 49.8836V77.6559V77.6882ZM69.6713 76.8153H79.4633V49.9159C79.4633 44.8399 81.0417 40.5399 84.0373 37.4685C87.0328 34.4617 91.3169 32.8774 96.4383 32.8774H101.302V23.0488H96.4383C92.6375 23.0488 89.0299 23.6955 85.7444 24.9564C83.7796 25.7 81.8469 26.7346 80.1398 27.9631L79.4311 28.4481V23.0165H69.6391V76.8153H69.6713Z" fill="#231F20"/>
<path d="M122.916 5.85523C122.916 8.79735 120.5 11.1898 117.569 11.1898C114.638 11.1898 112.254 8.79735 112.254 5.85523C112.254 2.91311 114.638 0.488281 117.569 0.488281C120.5 0.488281 122.916 2.91311 122.916 5.85523ZM112.254 77.2744V22.6027H122.916V77.2744H112.254Z" fill="#231F20"/>
<path d="M123.334 77.6914H111.771V22.1467H123.334V77.6914ZM112.673 76.8185H122.465V23.0197H112.673V76.8185ZM117.536 11.6068C114.38 11.6068 111.771 9.02035 111.771 5.81958C111.771 2.61881 114.348 0 117.536 0C120.725 0 123.334 2.61881 123.334 5.81958C123.334 9.02035 120.725 11.6068 117.536 11.6068ZM117.536 0.90527C114.863 0.90527 112.673 3.13611 112.673 5.85191C112.673 8.56771 114.863 10.7339 117.536 10.7339C120.21 10.7339 122.465 8.53538 122.465 5.85191C122.465 3.16844 120.242 0.90527 117.536 0.90527Z" fill="#231F20"/>
<path d="M186.854 75.9047C186.854 80.0431 186.049 83.8905 184.47 87.3822C182.86 90.9063 180.541 93.8161 177.545 96.144L173.325 99.3771L166.819 90.8417L171.038 87.6086C172.649 86.38 173.873 84.7958 174.743 82.8882C175.677 80.8514 176.16 78.4589 176.16 75.8724V72.219C174.453 73.4476 172.52 74.4498 170.459 75.2581C167.141 76.5514 163.469 77.198 159.604 77.198C143.563 77.198 132.386 65.9468 132.386 49.8783C132.386 32.4519 144.626 22.5586 159.604 22.5586C166.046 22.5586 171.715 24.3691 176.16 27.5699V22.5586H186.822V75.8724L186.854 75.9047ZM147.525 37.7542C144.626 40.6963 143.08 44.8993 143.08 49.9106C143.08 54.9219 144.658 59.0926 147.525 62.0671C150.456 64.9769 154.643 66.5288 159.636 66.5288C164.628 66.5288 168.784 64.9445 171.747 62.0671C174.646 59.125 176.192 54.9219 176.192 49.9106C176.192 44.8993 174.614 40.7286 171.747 37.7542C168.816 34.8444 164.628 33.2925 159.636 33.2925C154.643 33.2925 150.488 34.8767 147.525 37.7542Z" fill="#231F20"/>
<path d="M173.261 99.9966L166.239 90.7823L170.813 87.2905C172.359 86.0943 173.551 84.5747 174.388 82.7642C175.322 80.792 175.773 78.4965 175.773 75.9424V73.0972C174.292 74.0672 172.584 74.9401 170.684 75.716C167.302 77.0416 163.598 77.6882 159.668 77.6882C143.369 77.6882 131.999 66.2754 131.999 49.9159C131.999 33.5564 143.112 22.1436 159.668 22.1436C165.724 22.1436 171.264 23.7278 175.773 26.7346V22.1436H187.337V75.91C187.337 80.0807 186.532 84.0251 184.921 87.5815C183.311 91.1056 180.927 94.1124 177.867 96.5049L173.293 99.9966H173.261ZM167.463 90.9439L173.422 98.7681L177.287 95.7936C180.251 93.4981 182.537 90.5883 184.084 87.1936C185.63 83.7665 186.403 79.9514 186.403 75.91V23.0165H176.611V28.4158L175.934 27.9308C171.457 24.73 165.82 23.0165 159.636 23.0165C143.595 23.0165 132.836 33.815 132.836 49.9159C132.836 66.0167 143.853 76.8153 159.636 76.8153C163.437 76.8153 167.044 76.1687 170.33 74.9078C172.488 74.0348 174.356 73.0326 175.934 71.901L176.643 71.3837V75.91C176.643 78.5935 176.16 80.986 175.193 83.0875C174.324 85.0597 173.035 86.6762 171.36 87.9695L167.495 90.9439H167.463ZM159.636 66.9543C154.579 66.9543 150.295 65.3701 147.235 62.3633C144.239 59.2919 142.661 54.9919 142.661 49.9159C142.661 44.8399 144.239 40.5399 147.235 37.4685C150.295 34.4617 154.579 32.8774 159.636 32.8774C164.693 32.8774 168.977 34.4617 172.037 37.4685C175.032 40.5399 176.611 44.8399 176.611 49.9159C176.611 54.9919 175.032 59.3242 172.037 62.3633C168.977 65.3701 164.693 66.9543 159.636 66.9543ZM147.847 38.0504C145.012 40.9279 143.53 45.0339 143.53 49.8836C143.53 54.7332 145.012 58.8393 147.879 61.7167C150.746 64.5618 154.836 66.0491 159.668 66.0491C164.5 66.0491 168.558 64.5295 171.457 61.6844C174.292 58.8069 175.773 54.7009 175.773 49.8512C175.773 45.0016 174.292 40.8955 171.457 38.0181C168.59 35.173 164.5 33.6857 159.668 33.6857C154.836 33.6857 150.746 35.2053 147.879 38.0181L147.847 38.0504Z" fill="#231F20"/>
<path d="M211.784 27.6121C213.524 26.3835 215.424 25.3166 217.486 24.573C220.803 23.2797 224.475 22.6331 228.341 22.6331C244.382 22.6331 255.559 33.8843 255.559 49.9528V77.2725H244.897V49.9528C244.897 44.9415 243.383 40.7708 240.452 37.7963C237.521 34.8542 233.333 33.3347 228.341 33.3347C223.348 33.3347 219.193 34.8542 216.229 37.7963C213.331 40.7385 211.784 44.9415 211.784 49.9528V77.2725H201.123V2.58789H211.784V27.5798V27.6121Z" fill="#231F20"/>
<path d="M256.01 77.6981H244.446V49.9257C244.446 45.0438 242.965 40.9377 240.13 38.0926C237.295 35.2475 233.237 33.7279 228.341 33.7279C223.445 33.7279 219.386 35.2475 216.552 38.0603C213.717 40.9377 212.236 45.0438 212.236 49.8934V77.6657H200.672V2.17285H212.236V26.7767C213.911 25.6775 215.618 24.8046 217.325 24.1579C220.707 22.8324 224.411 22.1857 228.341 22.1857C244.64 22.1857 256.01 33.5986 256.01 49.9581V77.7304V77.6981ZM245.348 76.8251H255.14V49.9257C255.14 34.0835 244.124 23.0263 228.341 23.0263C224.54 23.0263 220.932 23.673 217.647 24.9339C215.747 25.6452 213.878 26.6474 212.042 27.9407L211.366 28.4256V3.01346H201.574V76.7928H211.366V49.8934C211.366 44.8174 212.944 40.5174 215.94 37.446C218.935 34.4392 223.219 32.855 228.341 32.855C233.462 32.855 237.746 34.4392 240.742 37.446C243.738 40.4528 245.316 44.7528 245.316 49.8934V76.7928L245.348 76.8251Z" fill="#231F20"/>
<path d="M292.151 22.607V33.3086H276.206V55.9403C276.206 58.5267 276.69 60.8869 277.624 62.9561C278.493 64.8636 279.717 66.4478 281.328 67.6764L285.547 70.9095L279.105 79.4449L274.821 76.2118C271.826 73.884 269.507 70.9742 267.896 67.4501C266.318 63.9584 265.512 60.111 265.512 55.9726V10.6445H276.174V22.6393H292.118L292.151 22.607Z" fill="#231F20"/>
<path d="M279.201 80.0236L274.595 76.5318C271.535 74.1393 269.152 71.1325 267.541 67.6084C265.931 64.052 265.125 60.14 265.125 55.937V10.1562H276.689V22.151H292.633V33.7256H276.689V55.9046C276.689 58.4588 277.14 60.7543 278.074 62.7265C278.879 64.5693 280.103 66.0889 281.649 67.2851L286.223 70.7769L279.234 79.9912L279.201 80.0236ZM265.995 11.0292V55.9046C265.995 59.9783 266.768 63.7611 268.314 67.1881C269.86 70.5829 272.147 73.4927 275.111 75.7882L279.04 78.7626L284.967 70.9385L281.102 67.9641C279.427 66.6708 278.138 65.0543 277.269 63.0821C276.302 60.9806 275.819 58.5881 275.819 55.9046V32.8526H291.764V23.024H275.819V11.0292H266.027H265.995Z" fill="#231F20"/>
</svg>
