<svg width="18" height="12" viewBox="0 0 18 12" fill="none" xmlns="http://www.w3.org/2000/svg">
<path d="M12.3334 1.00008C12.3334 0.779068 12.2456 0.567106 12.0893 0.410826C11.9331 0.254546 11.7211 0.166748 11.5001 0.166748H1.50008C1.27907 0.166748 1.06711 0.254546 0.910826 0.410826C0.754545 0.567106 0.666748 0.779068 0.666748 1.00008C0.666748 1.2211 0.754545 1.43306 0.910826 1.58934C1.06711 1.74562 1.27907 1.83341 1.50008 1.83341H5.66675V11.0001C5.66675 11.2211 5.75455 11.4331 5.91083 11.5893C6.06711 11.7456 6.27907 11.8334 6.50008 11.8334C6.7211 11.8334 6.93306 11.7456 7.08934 11.5893C7.24562 11.4331 7.33341 11.2211 7.33341 11.0001V1.83341H11.5001C11.7211 1.83341 11.9331 1.74562 12.0893 1.58934C12.2456 1.43306 12.3334 1.2211 12.3334 1.00008ZM16.5001 5.16675H11.5001C11.2791 5.16675 11.0671 5.25455 10.9108 5.41083C10.7545 5.56711 10.6667 5.77907 10.6667 6.00008C10.6667 6.2211 10.7545 6.43306 10.9108 6.58934C11.0671 6.74562 11.2791 6.83342 11.5001 6.83342H13.1667V11.0001C13.1667 11.2211 13.2545 11.4331 13.4108 11.5893C13.5671 11.7456 13.7791 11.8334 14.0001 11.8334C14.2211 11.8334 14.4331 11.7456 14.5893 11.5893C14.7456 11.4331 14.8334 11.2211 14.8334 11.0001V6.83342H16.5001C16.7211 6.83342 16.9331 6.74562 17.0893 6.58934C17.2456 6.43306 17.3334 6.2211 17.3334 6.00008C17.3334 5.77907 17.2456 5.56711 17.0893 5.41083C16.9331 5.25455 16.7211 5.16675 16.5001 5.16675Z" fill="#231F20"/>
</svg>
