<svg width="20" height="20" viewBox="0 0 20 20" fill="none" xmlns="http://www.w3.org/2000/svg">
<path d="M11.9143 9.84374C11.6018 9.72624 11.6018 9.27749 11.5825 8.96499C11.5043 7.85186 11.895 6.15249 11.4262 5.42999C11.0943 4.99999 9.49247 5.03936 8.51622 5.09811C8.24247 5.13749 7.91059 5.19561 7.67622 5.31311C7.44184 5.43061 7.20747 5.62561 7.20747 5.80124C7.20747 6.05499 7.79372 6.01624 8.00809 6.34811C8.24247 6.69999 8.24247 7.46124 8.24247 8.08624C8.24247 8.80874 8.12497 9.76624 7.83247 9.80499C7.38309 9.82436 7.12934 9.37499 6.89497 9.04311C6.42622 8.39874 5.95747 7.59749 5.60559 6.81624C5.42997 6.40624 5.33184 5.95686 5.07809 5.78124C4.68747 5.50749 3.98434 5.48811 3.30059 5.50749C2.67559 5.52686 1.77684 5.44874 1.60122 5.81999C1.46434 6.22999 1.75747 6.62061 1.91372 6.95311C2.71434 8.69124 3.57372 10.215 4.62872 11.66C5.60559 13.0075 6.52309 14.0819 8.31997 14.6481C8.82809 14.8044 11.0543 15.2537 11.5037 14.6481C11.66 14.4137 11.6212 13.8862 11.6993 13.4956C11.7775 13.105 11.875 12.7144 12.2462 12.695C12.5587 12.6756 12.7343 12.9487 12.93 13.1444C13.145 13.3594 13.3206 13.535 13.4768 13.7306C13.8481 14.1019 14.2387 14.6094 14.7075 14.805C15.3518 15.0787 16.3481 15.0006 17.2856 14.9612C18.0475 14.9419 18.5943 14.7856 18.6531 14.3362C18.6925 13.9844 18.3012 13.4769 18.0668 13.1837C17.4806 12.4612 17.2075 12.2462 16.5431 11.5819C16.25 11.2887 15.8787 10.9762 15.8787 10.625C15.8593 10.41 16.035 10.215 16.1912 9.99999C16.875 8.98436 17.5587 8.26186 18.1837 7.20686C18.3593 6.89436 18.77 6.17186 18.6137 5.81999C18.4381 5.42936 17.4612 5.54624 16.8556 5.54624C16.0743 5.54624 15.0587 5.48749 14.8631 5.64374C14.4918 5.89749 14.3356 6.30811 14.16 6.69874C13.7693 7.59749 13.2418 8.51499 12.695 9.19874C12.4993 9.43311 12.1287 9.92124 11.9137 9.84311L11.9143 9.84374Z" fill="#6B6B6B"/>
</svg>
